<svg width="180" height="56" viewBox="0 0 180 56" fill="none" xmlns="http://www.w3.org/2000/svg">
<g clip-path="url(#clip0_7_23533)">
<path d="M0 0H180V56H0V0Z" fill="black"/>
<path d="M89.9754 10.8125H88.7313V19.5775H89.9754V10.8125Z" fill="white"/>
<path d="M36.8521 16.0958C37.9883 14.732 38.548 12.9789 38.4125 11.209C36.6767 11.3913 35.0733 12.2209 33.9219 13.5324C33.3589 14.1732 32.9277 14.9186 32.6529 15.7261C32.3782 16.5335 32.2653 17.3872 32.3207 18.2384C33.1889 18.2473 34.0478 18.0591 34.8327 17.688C35.6176 17.3169 36.3081 16.7725 36.8521 16.0958Z" fill="white"/>
<path d="M40.6764 27.4212C40.6915 26.2527 41.0019 25.107 41.5787 24.0907C42.1555 23.0743 42.9801 22.2204 43.9756 21.6084C43.3432 20.7051 42.5089 19.9618 41.5389 19.4375C40.5689 18.9131 39.4901 18.6221 38.388 18.5876C36.95 18.4367 35.5388 18.9967 34.3855 19.4545C33.6534 19.745 33.0251 19.9944 32.5599 19.9944C32.0307 19.9944 31.3845 19.7348 30.6604 19.4439C29.7135 19.0636 28.6335 18.6298 27.508 18.653C26.2233 18.6945 24.9712 19.0681 23.8738 19.7374C22.7763 20.4066 21.871 21.3488 21.2459 22.472C18.5383 27.1598 20.558 34.0493 23.1516 37.8385C24.4493 39.694 25.9659 41.7666 27.9503 41.6931C28.8505 41.6558 29.4893 41.387 30.149 41.1093C30.9125 40.788 31.7041 40.4549 32.9615 40.4549C34.1471 40.4549 34.9048 40.7776 35.6318 41.0874C36.3289 41.3843 36.9979 41.6693 37.9889 41.6464C40.0726 41.6126 41.3854 39.7827 42.6376 37.9096C43.5699 36.5875 44.2874 35.1263 44.7634 33.5801C43.5528 33.0681 42.5197 32.211 41.7929 31.1158C41.0661 30.0206 40.6778 28.7357 40.6764 27.4212Z" fill="white"/>
<path fill-rule="evenodd" clip-rule="evenodd" d="M58.5964 36.9948H65.2232L66.8132 41.6938H69.6679L63.3911 24.3086H60.4749L54.1982 41.6938H57.005L58.5964 36.9948ZM64.5355 34.8264H59.2827L61.8736 27.2003H61.9461L64.5355 34.8264Z" fill="white"/>
<path fill-rule="evenodd" clip-rule="evenodd" d="M83.2236 35.358C83.2236 39.2969 81.1154 41.8275 77.9339 41.8275C77.128 41.8697 76.3265 41.6841 75.6212 41.2919C74.9159 40.8997 74.3353 40.3168 73.9458 39.6099H73.8856V45.8881H71.2839V29.0197H73.8023V31.1279H73.8501C74.2575 30.4245 74.8479 29.8446 75.5586 29.45C76.2692 29.0554 77.0736 28.8609 77.8861 28.8871C81.103 28.8871 83.2236 31.4301 83.2236 35.358ZM80.5493 35.358C80.5493 32.7918 79.2232 31.1047 77.1997 31.1047C75.2118 31.1047 73.8747 32.8274 73.8747 35.358C73.8747 37.9119 75.2118 39.6223 77.1997 39.6223C79.2232 39.6223 80.5493 37.9475 80.5493 35.358Z" fill="white"/>
<path fill-rule="evenodd" clip-rule="evenodd" d="M91.8847 41.8276C95.0661 41.8276 97.1743 39.2969 97.1743 35.358C97.1743 31.4301 95.0538 28.8871 91.8368 28.8871C91.0243 28.8609 90.22 29.0555 89.5093 29.45C88.7986 29.8446 88.2082 30.4245 87.8009 31.1279H87.753V29.0197H85.2347V45.8881H87.8364V39.6099H87.8966C88.286 40.3168 88.8667 40.8997 89.572 41.2919C90.2773 41.6841 91.0788 41.8697 91.8847 41.8276ZM91.1505 31.1047C93.1739 31.1047 94.5001 32.7918 94.5001 35.358C94.5001 37.9475 93.174 39.6223 91.1505 39.6223C89.1626 39.6223 87.8255 37.9119 87.8255 35.358C87.8255 32.8274 89.1626 31.1047 91.1505 31.1047Z" fill="white"/>
<path d="M106.395 36.8506C106.587 38.5746 108.262 39.7066 110.551 39.7066C112.744 39.7066 114.322 38.5746 114.322 37.0201C114.322 35.6706 113.37 34.8626 111.117 34.3089L108.864 33.7661C105.671 32.9951 104.189 31.5021 104.189 29.0794C104.189 26.0798 106.803 24.0195 110.515 24.0195C114.189 24.0195 116.707 26.0798 116.792 29.0794H114.166C114.009 27.3445 112.574 26.2972 110.478 26.2972C108.383 26.2972 106.948 27.3568 106.948 28.899C106.948 30.1281 107.864 30.8513 110.105 31.405L112.021 31.8753C115.588 32.7188 117.07 34.1517 117.07 36.6946C117.07 39.9471 114.479 41.9843 110.358 41.9843C106.503 41.9843 103.9 39.995 103.731 36.8505L106.395 36.8506Z" fill="white"/>
<path d="M122.685 29.0191V26.0195H120.071V29.0191H118.228V31.0795H120.071V38.3447C120.071 40.8029 121.071 41.7667 123.638 41.7667C124.122 41.7758 124.606 41.7354 125.083 41.6464V39.5984C124.799 39.6335 124.513 39.6536 124.227 39.6586C123.167 39.6586 122.685 39.1527 122.685 38.0672V31.0795H125.095V29.0191H122.685Z" fill="white"/>
<path fill-rule="evenodd" clip-rule="evenodd" d="M126.491 35.3574C126.491 31.3693 128.84 28.8633 132.503 28.8633C136.178 28.8633 138.515 31.3693 138.515 35.3574C138.515 39.3564 136.19 41.8516 132.503 41.8516C128.817 41.8516 126.491 39.3564 126.491 35.3574ZM135.864 35.3574C135.864 32.6217 134.611 31.007 132.503 31.007C130.394 31.007 129.142 32.634 129.142 35.3574C129.142 38.1041 130.394 39.7064 132.503 39.7064C134.611 39.7064 135.864 38.1041 135.864 35.3574Z" fill="white"/>
<path d="M143.142 29.0196H140.66V41.6948H143.262V34.1766C143.219 33.8008 143.258 33.4201 143.377 33.0608C143.495 32.7015 143.689 32.372 143.947 32.0949C144.205 31.8179 144.519 31.5998 144.869 31.4558C145.219 31.3117 145.595 31.2451 145.973 31.2604C146.369 31.2489 146.764 31.302 147.142 31.4177V28.9841C146.85 28.9185 146.551 28.8859 146.251 28.887C145.557 28.8605 144.875 29.0737 144.32 29.4907C143.765 29.9078 143.37 30.5032 143.202 31.177H143.142V29.0196Z" fill="white"/>
<path fill-rule="evenodd" clip-rule="evenodd" d="M159.138 37.9715C158.788 40.2724 156.547 41.8515 153.68 41.8515C149.993 41.8515 147.704 39.381 147.704 35.4176C147.704 31.4418 150.005 28.8633 153.571 28.8633C157.078 28.8633 159.283 31.2722 159.283 35.1154V36.0068H150.331V36.164C150.289 36.6305 150.348 37.1005 150.502 37.5426C150.656 37.9848 150.903 38.3891 151.225 38.7287C151.548 39.0682 151.939 39.3353 152.372 39.5121C152.806 39.689 153.272 39.7715 153.74 39.7543C154.355 39.8119 154.972 39.6695 155.5 39.3483C156.027 39.0271 156.437 38.5442 156.668 37.9715H159.138ZM150.343 34.1885H156.68C156.703 33.769 156.64 33.3493 156.493 32.9556C156.346 32.5619 156.12 32.2028 155.828 31.9007C155.536 31.5986 155.185 31.3601 154.797 31.2002C154.408 31.0403 153.991 30.9625 153.571 30.9715C153.147 30.9689 152.727 31.0504 152.335 31.211C151.943 31.3716 151.587 31.6083 151.287 31.9074C150.986 32.2065 150.749 32.5621 150.587 32.9536C150.425 33.3451 150.342 33.7648 150.343 34.1885Z" fill="white"/>
<path fill-rule="evenodd" clip-rule="evenodd" d="M60.5592 11.4656C60.0495 11.2676 59.5021 11.1852 58.9567 11.2243H55.9393V19.5779H58.9567C61.445 19.5779 62.8873 18.0438 62.8873 15.3751C62.9561 14.8326 62.9036 14.2815 62.7337 13.7618C62.5637 13.242 62.2805 12.7664 61.9045 12.3693C61.5284 11.9722 61.069 11.6636 60.5592 11.4656ZM58.8117 18.3965H57.2367V12.4048H58.8117C59.1995 12.3833 59.5872 12.4478 59.9472 12.5937C60.3071 12.7397 60.6302 12.9634 60.8935 13.2489C61.1568 13.5344 61.3537 13.8746 61.4701 14.2451C61.5864 14.6157 61.6194 15.0073 61.5666 15.3921C61.6235 15.7784 61.5936 16.1725 61.479 16.5458C61.3644 16.919 61.168 17.2621 60.9041 17.5499C60.6402 17.8376 60.3155 18.063 59.9535 18.2094C59.5916 18.3559 59.2015 18.4198 58.8117 18.3965Z" fill="white"/>
<path fill-rule="evenodd" clip-rule="evenodd" d="M64.3531 16.4233C64.3134 16.009 64.3608 15.591 64.4922 15.1961C64.6236 14.8012 64.836 14.4381 65.1159 14.1301C65.3959 13.8222 65.7371 13.5761 66.1177 13.4077C66.4982 13.2393 66.9098 13.1523 67.326 13.1523C67.7422 13.1523 68.1538 13.2393 68.5344 13.4077C68.9149 13.5761 69.2561 13.8222 69.5361 14.1301C69.816 14.4381 70.0284 14.8012 70.1598 15.1961C70.2912 15.591 70.3386 16.009 70.299 16.4233C70.3393 16.838 70.2925 17.2566 70.1615 17.6521C70.0304 18.0476 69.8181 18.4114 69.5381 18.72C69.2581 19.0285 68.9167 19.2751 68.5357 19.4439C68.1547 19.6126 67.7427 19.6998 67.326 19.6998C66.9093 19.6998 66.4973 19.6126 66.1163 19.4439C65.7353 19.2751 65.3939 19.0285 65.1139 18.72C64.8339 18.4114 64.6216 18.0476 64.4905 17.6521C64.3595 17.2566 64.3127 16.838 64.3531 16.4233ZM69.0192 16.4233C69.0192 15.0568 68.4054 14.2577 67.328 14.2577C66.2466 14.2577 65.6383 15.0568 65.6383 16.4233C65.6383 17.8007 66.2467 18.5937 67.328 18.5937C68.4054 18.5937 69.0193 17.7952 69.0192 16.4233Z" fill="white"/>
<path d="M76.9119 19.5775H78.2026L79.9334 13.2734H78.6893L77.5655 18.0838H77.467L76.1709 13.2734H74.9774L73.6813 18.0838H73.5883L72.459 13.2734H71.1971L72.9348 19.5775H74.2131L75.5106 14.9346H75.609L76.9119 19.5775Z" fill="white"/>
<path d="M81.395 13.2743H82.5926V14.2758H82.6856C82.8433 13.9161 83.1093 13.6146 83.4465 13.4133C83.7837 13.2119 84.1754 13.1208 84.5668 13.1527C84.8736 13.1296 85.1816 13.1758 85.468 13.288C85.7544 13.4001 86.012 13.5753 86.2215 13.8004C86.4311 14.0256 86.5873 14.2951 86.6786 14.5888C86.7699 14.8826 86.7939 15.1931 86.7489 15.4974V19.5784H85.5047V15.8098C85.5047 14.7967 85.0645 14.2929 84.1444 14.2929C83.9361 14.2832 83.7282 14.3186 83.5349 14.3968C83.3416 14.475 83.1675 14.594 83.0246 14.7457C82.8816 14.8975 82.7731 15.0783 82.7066 15.2759C82.6401 15.4735 82.617 15.6831 82.6391 15.8905V19.5784H81.3949L81.395 13.2743Z" fill="white"/>
<path fill-rule="evenodd" clip-rule="evenodd" d="M91.7049 16.4234C91.6653 16.0091 91.7127 15.591 91.8441 15.1961C91.9755 14.8012 92.188 14.4381 92.468 14.1301C92.7479 13.8222 93.0892 13.5761 93.4698 13.4077C93.8504 13.2393 94.262 13.1523 94.6782 13.1523C95.0944 13.1523 95.506 13.2393 95.8866 13.4077C96.2672 13.5761 96.6085 13.8222 96.8884 14.1301C97.1684 14.4381 97.3808 14.8012 97.5123 15.1961C97.6437 15.591 97.6911 16.0091 97.6515 16.4234C97.6918 16.8381 97.645 17.2567 97.5139 17.6522C97.3828 18.0477 97.1704 18.4115 96.8904 18.7201C96.6104 19.0286 96.2689 19.2752 95.8879 19.4439C95.507 19.6127 95.0949 19.6999 94.6782 19.6999C94.2615 19.6999 93.8494 19.6127 93.4684 19.4439C93.0875 19.2752 92.746 19.0286 92.466 18.7201C92.1859 18.4115 91.9736 18.0477 91.8425 17.6522C91.7114 17.2567 91.6646 16.8381 91.7049 16.4234ZM96.3711 16.4234C96.3711 15.0569 95.7572 14.2578 94.6799 14.2578C93.5985 14.2578 92.9901 15.0569 92.9901 16.4234C92.9901 17.8008 93.5985 18.5938 94.6799 18.5938C95.7572 18.5938 96.3711 17.7953 96.3711 16.4234Z" fill="white"/>
<path fill-rule="evenodd" clip-rule="evenodd" d="M101.306 15.9133C99.8062 16.0063 98.9613 16.6605 98.9613 17.7952C98.9623 18.0613 99.0191 18.3242 99.128 18.567C99.2368 18.8098 99.3954 19.0271 99.5933 19.2048C99.7913 19.3826 100.024 19.5169 100.277 19.599C100.53 19.6812 100.798 19.7095 101.063 19.6819C101.438 19.6993 101.81 19.6168 102.143 19.4429C102.476 19.269 102.756 19.0099 102.956 18.6921H103.055V19.5781H104.252V15.2707C104.252 13.9391 103.361 13.1523 101.78 13.1523C100.35 13.1523 99.3318 13.8468 99.2046 14.9296H100.409C100.547 14.4839 101.028 14.2289 101.723 14.2289C102.573 14.2289 103.014 14.6049 103.014 15.2707V15.8149L101.306 15.9133ZM103.014 16.7295V17.2566C103 17.4554 102.947 17.6495 102.857 17.8274C102.767 18.0052 102.642 18.1631 102.49 18.2917C102.337 18.4203 102.161 18.5169 101.97 18.5758C101.78 18.6347 101.58 18.6548 101.381 18.6347C100.704 18.6347 100.212 18.3045 100.212 17.7371C100.212 17.1814 100.606 16.8861 101.474 16.828L103.014 16.7295Z" fill="white"/>
<path fill-rule="evenodd" clip-rule="evenodd" d="M105.887 16.4228C105.887 14.4308 106.911 13.1689 108.504 13.1689C108.898 13.1507 109.289 13.2451 109.632 13.4409C109.974 13.6368 110.253 13.926 110.437 14.2749H110.53V10.8125H111.775V19.5775H110.582V18.5815H110.484C110.286 18.928 109.996 19.2137 109.647 19.4075C109.299 19.6014 108.903 19.6961 108.504 19.6814C106.901 19.6815 105.887 18.4196 105.887 16.4228ZM107.173 16.4228C107.173 17.7599 107.803 18.5645 108.857 18.5645C109.906 18.5645 110.554 17.7483 110.554 16.4282C110.554 15.1144 109.899 14.2865 108.857 14.2865C107.81 14.2865 107.173 15.0966 107.173 16.4228Z" fill="white"/>
<path fill-rule="evenodd" clip-rule="evenodd" d="M117.061 15.1961C116.93 15.591 116.882 16.009 116.922 16.4233C116.882 16.838 116.928 17.2566 117.059 17.6521C117.191 18.0476 117.403 18.4114 117.683 18.72C117.963 19.0285 118.304 19.2751 118.685 19.4439C119.066 19.6126 119.478 19.6998 119.895 19.6998C120.312 19.6998 120.724 19.6126 121.105 19.4439C121.486 19.2751 121.827 19.0285 122.107 18.72C122.387 18.4114 122.599 18.0476 122.73 17.6521C122.861 17.2566 122.908 16.838 122.868 16.4233C122.908 16.009 122.86 15.591 122.729 15.1961C122.597 14.8012 122.385 14.4381 122.105 14.1301C121.825 13.8222 121.484 13.5761 121.103 13.4077C120.723 13.2393 120.311 13.1523 119.895 13.1523C119.479 13.1523 119.067 13.2393 118.687 13.4077C118.306 13.5761 117.965 13.8222 117.685 14.1301C117.405 14.4381 117.193 14.8012 117.061 15.1961ZM119.897 14.2577C120.974 14.2577 121.588 15.0568 121.588 16.4233C121.588 17.7952 120.974 18.5937 119.897 18.5937C118.816 18.5937 118.207 17.8007 118.207 16.4233C118.207 15.0568 118.816 14.2577 119.897 14.2577Z" fill="white"/>
<path d="M124.537 13.2743H125.735V14.2758H125.828C125.986 13.9161 126.252 13.6146 126.589 13.4133C126.926 13.2119 127.318 13.1208 127.709 13.1527C128.016 13.1296 128.324 13.1758 128.61 13.288C128.897 13.4001 129.154 13.5753 129.364 13.8004C129.573 14.0256 129.73 14.2951 129.821 14.5888C129.912 14.8826 129.936 15.1931 129.891 15.4974V19.5784H128.647V15.8098C128.647 14.7967 128.207 14.2929 127.287 14.2929C127.078 14.2832 126.87 14.3186 126.677 14.3968C126.484 14.475 126.31 14.594 126.167 14.7457C126.024 14.8975 125.915 15.0783 125.849 15.2759C125.782 15.4735 125.759 15.6831 125.781 15.8905V19.5784H124.537V13.2743Z" fill="white"/>
<path d="M136.921 13.3014V11.7031H135.676V13.3013H134.675V14.3493H135.676V17.9095C135.676 19.1249 136.227 19.6116 137.61 19.6116C137.837 19.6093 138.064 19.588 138.287 19.548V18.5117C138.13 18.5303 137.971 18.5399 137.813 18.5404C137.193 18.5404 136.921 18.2513 136.921 17.5909V14.3493H138.287V13.3014H136.921Z" fill="white"/>
<path d="M139.986 10.8125H141.22V14.2865H141.318C141.483 13.9235 141.757 13.6203 142.101 13.4182C142.445 13.2161 142.843 13.125 143.24 13.1572C143.545 13.1406 143.85 13.1916 144.134 13.3064C144.417 13.4213 144.671 13.5972 144.879 13.8217C145.086 14.0462 145.241 14.3137 145.333 14.605C145.425 14.8964 145.452 15.2045 145.411 15.5074V19.5775H144.166V15.8143C144.166 14.8074 143.697 14.2974 142.818 14.2974C142.604 14.2799 142.389 14.3093 142.188 14.3836C141.986 14.4579 141.804 14.5752 141.653 14.7274C141.501 14.8797 141.385 15.0631 141.312 15.2649C141.24 15.4667 141.212 15.682 141.231 15.8957V19.5775H139.986V10.8125Z" fill="white"/>
<path fill-rule="evenodd" clip-rule="evenodd" d="M151.631 19.284C152.13 18.9506 152.497 18.4523 152.666 17.8761H151.468C151.322 18.1378 151.102 18.3503 150.834 18.4864C150.567 18.6225 150.266 18.676 149.968 18.6403C149.736 18.6429 149.506 18.5969 149.293 18.5054C149.079 18.4138 148.887 18.2787 148.729 18.1087C148.571 17.9386 148.451 17.7374 148.375 17.518C148.299 17.2985 148.27 17.0657 148.289 16.8343V16.7646H152.741V16.3305C152.741 14.3509 151.683 13.1525 149.929 13.1525C149.512 13.1489 149.1 13.2349 148.719 13.4046C148.339 13.5743 147.999 13.8237 147.724 14.136C147.448 14.4483 147.243 14.8162 147.122 15.2147C147.001 15.6133 146.967 16.0332 147.022 16.446C146.965 16.8576 146.999 17.2766 147.12 17.674C147.241 18.0713 147.448 18.4375 147.725 18.7471C148.002 19.0567 148.343 19.3023 148.725 19.4668C149.106 19.6313 149.519 19.7109 149.934 19.6999C150.531 19.7647 151.132 19.6175 151.631 19.284ZM151.474 15.8445H148.289C148.287 15.6293 148.327 15.4157 148.408 15.2164C148.489 15.017 148.609 14.8359 148.761 14.6837C148.913 14.5315 149.094 14.4113 149.294 14.3302C149.493 14.2491 149.707 14.2087 149.922 14.2114C150.134 14.2065 150.345 14.2461 150.541 14.3275C150.736 14.409 150.913 14.5305 151.059 14.6843C151.205 14.8381 151.318 15.0208 151.389 15.2206C151.46 15.4204 151.489 15.6329 151.474 15.8445Z" fill="white"/>
</g>
<defs>
<clipPath id="clip0_7_23533">
<rect width="180" height="56" rx="6" fill="white"/>
</clipPath>
</defs>
</svg>
