<svg width="180" height="56" viewBox="0 0 180 56" fill="none" xmlns="http://www.w3.org/2000/svg">
<g clip-path="url(#clip0_7_23561)">
<path d="M0 0H180V56H0V0Z" fill="black"/>
<path d="M27.6 26.8672L13.4667 41.9338C13.8667 43.5338 15.3333 44.7338 17.2 44.7338C17.8667 44.7338 18.5333 44.6005 19.2 44.2005L35.2 35.0005L27.6 26.8672Z" fill="#EA4335"/>
<path d="M42 24.332L35.0667 20.332L27.3333 27.2654L35.0667 34.9987L41.8667 30.9987C43.0667 30.332 43.8667 29.132 43.8667 27.6654C44 26.1987 43.2 24.9987 42 24.332Z" fill="#FBBC04"/>
<path d="M13.4667 13.4004C13.3333 13.6671 13.3333 14.0671 13.3333 14.3337V41.0004C13.3333 41.4004 13.3333 41.6671 13.4667 41.9337L28.1333 27.2671L13.4667 13.4004Z" fill="#4285F4"/>
<path d="M27.7333 27.6663L35.0667 20.3329L19.0667 11.1329C18.5333 10.7329 17.8667 10.5996 17.0667 10.5996C15.3333 10.5996 13.7333 11.7996 13.3333 13.3996L27.7333 27.6663Z" fill="#34A853"/>
<path d="M63.2 14.5992C63.2 15.6659 62.9333 16.5992 62.2667 17.2659C61.4667 18.0659 60.5333 18.4659 59.3333 18.4659C58.1333 18.4659 57.2 18.0659 56.4 17.2659C55.6 16.4659 55.2 15.5325 55.2 14.3325C55.2 13.1325 55.6 12.1992 56.4 11.3992C57.2 10.5992 58.1333 10.1992 59.3333 10.1992C59.8667 10.1992 60.5333 10.3325 60.9333 10.4659C61.4667 10.7325 61.8667 10.9992 62.2667 11.3992L61.4667 12.1992C61.2 11.9325 60.9333 11.6659 60.5333 11.5325C60.1333 11.3992 59.7333 11.2659 59.3333 11.2659C58.4 11.2659 57.7333 11.5325 57.0667 12.1992C56.5333 12.8659 56.1333 13.5325 56.1333 14.4659C56.1333 15.3992 56.4 16.1992 57.0667 16.7325C57.7333 17.3992 58.4 17.6659 59.3333 17.6659C60.1333 17.6659 60.8 17.3992 61.3333 16.9992C61.8667 16.5992 62.1333 15.9325 62.2667 15.1325H59.3333V14.1992H63.2V14.5992Z" fill="white"/>
<path d="M69.3333 10.332V11.2654H65.7333V13.7987H69.0667V14.732H65.7333V17.2654H69.3333V18.332H64.6667V10.332H69.3333Z" fill="white"/>
<path d="M73.7333 11.2654V18.332H72.6667V11.2654H70.4V10.332H76V11.2654H73.7333Z" fill="white"/>
<path d="M80.9332 18.332H79.8666V10.332H80.9332V18.332Z" fill="white"/>
<path d="M85.4666 11.2654V18.332H84.3999V11.2654H82.1332V10.332H87.5999V11.2654H85.4666Z" fill="white"/>
<path d="M99.3333 14.3325C99.3333 15.5325 98.9333 16.4659 98.1333 17.2659C97.3333 18.0659 96.4 18.4659 95.2 18.4659C94 18.4659 93.0667 18.0659 92.2667 17.2659C91.4667 16.4659 91.0667 15.5325 91.0667 14.3325C91.0667 13.1325 91.4667 12.1992 92.2667 11.3992C93.0667 10.5992 94 10.1992 95.2 10.1992C96.4 10.1992 97.3333 10.5992 98.1333 11.3992C98.9333 12.1992 99.3333 13.1325 99.3333 14.3325ZM92.1333 14.3325C92.1333 15.2659 92.4 16.0659 93.0667 16.5992C93.6 17.2659 94.4 17.5325 95.2 17.5325C96.1333 17.5325 96.8 17.2659 97.3333 16.5992C97.8667 16.0659 98.2667 15.2659 98.2667 14.3325C98.2667 13.3992 98 12.5992 97.3333 12.0659C96.8 11.3992 96 11.1325 95.2 11.1325C94.2667 11.1325 93.6 11.3992 93.0667 12.0659C92.4 12.5992 92.1333 13.3992 92.1333 14.3325Z" fill="white"/>
<path d="M101.733 18.332H100.667V10.332H101.867L105.733 16.5987V10.332H106.8V18.332H105.733L101.6 11.7987V18.332H101.733Z" fill="white"/>
<path d="M90.8 30.0655C87.6 30.0655 85.0667 32.4655 85.0667 35.7988C85.0667 38.9988 87.6 41.5321 90.8 41.5321C94 41.5321 96.5333 39.1321 96.5333 35.7988C96.5333 32.3321 94 30.0655 90.8 30.0655ZM90.8 39.1321C89.0667 39.1321 87.6 37.6655 87.6 35.6655C87.6 33.6655 89.0667 32.1988 90.8 32.1988C92.5333 32.1988 94 33.5321 94 35.6655C94 37.6655 92.5333 39.1321 90.8 39.1321ZM78.4 30.0655C75.2 30.0655 72.6667 32.4655 72.6667 35.7988C72.6667 38.9988 75.2 41.5321 78.4 41.5321C81.6 41.5321 84.1333 39.1321 84.1333 35.7988C84.1333 32.3321 81.6 30.0655 78.4 30.0655ZM78.4 39.1321C76.6667 39.1321 75.2 37.6655 75.2 35.6655C75.2 33.6655 76.6667 32.1988 78.4 32.1988C80.1333 32.1988 81.6 33.5321 81.6 35.6655C81.6 37.6655 80.1333 39.1321 78.4 39.1321ZM63.6 31.7988V34.1988H69.3333C69.2 35.5321 68.6667 36.5988 68 37.2655C67.2 38.0655 65.8667 38.9988 63.6 38.9988C60 38.9988 57.3333 36.1988 57.3333 32.5988C57.3333 28.9988 60.1333 26.1988 63.6 26.1988C65.4667 26.1988 66.9333 26.9988 68 27.9321L69.7333 26.1988C68.2667 24.8655 66.4 23.7988 63.7333 23.7988C58.9333 23.7988 54.8 27.7988 54.8 32.5988C54.8 37.3988 58.9333 41.3988 63.7333 41.3988C66.4 41.3988 68.2667 40.5988 69.8667 38.8655C71.4667 37.2655 72 34.9988 72 33.2655C72 32.7321 72 32.1988 71.8667 31.7988H63.6ZM124.133 33.6655C123.6 32.3321 122.267 30.0655 119.333 30.0655C116.4 30.0655 114 32.3321 114 35.7988C114 38.9988 116.4 41.5321 119.6 41.5321C122.133 41.5321 123.733 39.9321 124.267 38.9988L122.4 37.6655C121.733 38.5988 120.933 39.2655 119.6 39.2655C118.267 39.2655 117.467 38.7321 116.8 37.5321L124.4 34.3321L124.133 33.6655ZM116.4 35.5321C116.4 33.3988 118.133 32.1988 119.333 32.1988C120.267 32.1988 121.2 32.7321 121.467 33.3988L116.4 35.5321ZM110.133 40.9988H112.667V24.3321H110.133V40.9988ZM106.133 31.2655C105.467 30.5988 104.4 29.9321 103.067 29.9321C100.267 29.9321 97.6 32.4655 97.6 35.6655C97.6 38.8655 100.133 41.2655 103.067 41.2655C104.4 41.2655 105.467 40.5988 106 39.9321H106.133V40.7321C106.133 42.8655 104.933 44.0655 103.067 44.0655C101.6 44.0655 100.533 42.9988 100.267 42.0655L98.1333 42.9988C98.8 44.4655 100.4 46.3321 103.2 46.3321C106.133 46.3321 108.533 44.5988 108.533 40.4655V30.3321H106.133V31.2655ZM103.2 39.1321C101.467 39.1321 100 37.6655 100 35.6655C100 33.6655 101.467 32.1988 103.2 32.1988C104.933 32.1988 106.267 33.6655 106.267 35.6655C106.267 37.6655 104.933 39.1321 103.2 39.1321ZM135.733 24.3321H129.733V40.9988H132.267V34.7321H135.733C138.533 34.7321 141.2 32.7321 141.2 29.5321C141.2 26.3321 138.533 24.3321 135.733 24.3321ZM135.867 32.3321H132.267V26.5988H135.867C137.733 26.5988 138.8 28.1988 138.8 29.3988C138.667 30.8655 137.6 32.3321 135.867 32.3321ZM151.2 29.9321C149.333 29.9321 147.467 30.7321 146.8 32.4655L149.067 33.3988C149.6 32.4655 150.4 32.1988 151.333 32.1988C152.667 32.1988 153.867 32.9988 154 34.3321V34.4655C153.6 34.1988 152.533 33.7988 151.467 33.7988C149.067 33.7988 146.667 35.1321 146.667 37.5321C146.667 39.7988 148.667 41.2655 150.8 41.2655C152.533 41.2655 153.333 40.4655 154 39.6655H154.133V40.9988H156.533V34.5988C156.267 31.6655 154 29.9321 151.2 29.9321ZM150.933 39.1321C150.133 39.1321 148.933 38.7321 148.933 37.6655C148.933 36.3321 150.4 35.9321 151.6 35.9321C152.667 35.9321 153.2 36.1988 153.867 36.4655C153.6 38.0655 152.267 39.1321 150.933 39.1321ZM164.933 30.3321L162.133 37.5321H162L159.067 30.3321H156.4L160.8 40.4655L158.267 46.0655H160.8L167.6 30.3321H164.933ZM142.533 40.9988H145.067V24.3321H142.533V40.9988Z" fill="white"/>
</g>
<defs>
<clipPath id="clip0_7_23561">
<rect width="180" height="56" rx="6" fill="white"/>
</clipPath>
</defs>
</svg>
