<svg width="18" height="18" viewBox="0 0 18 18" fill="none" xmlns="http://www.w3.org/2000/svg">
<path d="M7.845 10.485L6.07125 8.71125C5.92 8.56 5.7275 8.48438 5.49375 8.48438C5.26 8.48438 5.0675 8.56 4.91625 8.71125C4.765 8.8625 4.68938 9.055 4.68938 9.28875C4.68938 9.5225 4.765 9.715 4.91625 9.86625L7.2675 12.2175C7.4325 12.3825 7.625 12.465 7.845 12.465C8.065 12.465 8.2575 12.3825 8.4225 12.2175L13.0838 7.55625C13.235 7.405 13.3106 7.2125 13.3106 6.97875C13.3106 6.745 13.235 6.5525 13.0838 6.40125C12.9325 6.25 12.74 6.17438 12.5063 6.17438C12.2725 6.17438 12.08 6.25 11.9288 6.40125L7.845 10.485ZM9 17.25C7.85875 17.25 6.78625 17.0333 5.7825 16.5999C4.77875 16.1665 3.90563 15.5788 3.16313 14.8369C2.42063 14.0944 1.83295 13.2213 1.4001 12.2175C0.96725 11.2138 0.75055 10.1413 0.75 9C0.75 7.85875 0.9667 6.78625 1.4001 5.7825C1.8335 4.77875 2.42118 3.90563 3.16313 3.16313C3.90563 2.42063 4.77875 1.83295 5.7825 1.4001C6.78625 0.96725 7.85875 0.75055 9 0.75C10.1413 0.75 11.2138 0.9667 12.2175 1.4001C13.2213 1.8335 14.0944 2.42118 14.8369 3.16313C15.5794 3.90563 16.1673 4.77875 16.6007 5.7825C17.0341 6.78625 17.2506 7.85875 17.25 9C17.25 10.1413 17.0333 11.2138 16.5999 12.2175C16.1665 13.2213 15.5788 14.0944 14.8369 14.8369C14.0944 15.5794 13.2213 16.1673 12.2175 16.6007C11.2138 17.0341 10.1413 17.2506 9 17.25Z" fill="#2F54E9"/>
</svg>
