<svg width="28" height="28" viewBox="0 0 28 28" fill="none" xmlns="http://www.w3.org/2000/svg">
<path fill-rule="evenodd" clip-rule="evenodd" d="M2.58012 9.26972C2.19041 7.4641 2.69721 5.50379 4.1005 4.1005C5.50381 2.69721 7.4641 2.19041 9.26972 2.5801C10.2709 1.02778 12.0154 0 14 0C15.9845 0 17.729 1.02779 18.7303 2.58012C20.5359 2.19041 22.4962 2.69721 23.8995 4.1005C25.3028 5.50381 25.8096 7.4641 25.4199 9.26972C26.9723 10.2709 28 12.0154 28 14C28 15.9845 26.9723 17.729 25.4199 18.7303C25.8096 20.5359 25.3028 22.4962 23.8995 23.8995C22.4962 25.3028 20.5359 25.8096 18.7303 25.4199C17.729 26.9723 15.9845 28 14 28C12.0154 28 10.2709 26.9723 9.26972 25.4199C7.4641 25.8096 5.50381 25.3028 4.1005 23.8995C2.69721 22.4962 2.19041 20.5359 2.58012 18.7303C1.02778 17.729 0 15.9845 0 14C0 12.0154 1.02778 10.2709 2.58012 9.26972ZM10.0038 17.9893C12.2004 20.1858 15.7618 20.1858 17.9584 17.9893C20.155 15.7927 20.155 12.2313 17.9584 10.0347C15.7618 7.83808 12.2004 7.83808 10.0038 10.0347C7.80718 12.2313 7.80718 15.7927 10.0038 17.9893Z" fill="white"/>
</svg>
