<svg width="16" height="16" viewBox="0 0 16 16" fill="none" xmlns="http://www.w3.org/2000/svg">
<path fill-rule="evenodd" clip-rule="evenodd" d="M1.61817 10.6635C0.656704 10.1637 0 9.15853 0 8C0 6.84147 0.656704 5.83632 1.61817 5.33649C1.54124 5.07098 1.5 4.79031 1.5 4.5C1.5 2.84315 2.84315 1.5 4.5 1.5C4.79031 1.5 5.07098 1.54124 5.33649 1.61817C5.83632 0.656704 6.84147 0 8 0C9.15853 0 10.1637 0.656704 10.6635 1.61817C10.929 1.54124 11.2097 1.5 11.5 1.5C13.1569 1.5 14.5 2.84315 14.5 4.5C14.5 4.79031 14.4588 5.07098 14.3818 5.33649C15.3433 5.83632 16 6.84147 16 8C16 9.15853 15.3433 10.1637 14.3818 10.6635C14.4588 10.929 14.5 11.2097 14.5 11.5C14.5 13.1569 13.1569 14.5 11.5 14.5C11.2097 14.5 10.929 14.4588 10.6635 14.3818C10.1637 15.3433 9.15853 16 8 16C6.84147 16 5.83632 15.3433 5.33649 14.3818C5.07098 14.4588 4.79031 14.5 4.5 14.5C2.84315 14.5 1.5 13.1569 1.5 11.5C1.5 11.2097 1.54124 10.929 1.61817 10.6635ZM10.6117 6.84524C10.8023 6.64549 10.795 6.32899 10.5952 6.13832C10.3955 5.94765 10.079 5.95501 9.88832 6.15476L7.38636 8.77586L6.11168 7.44048C5.92101 7.24073 5.60451 7.23337 5.40476 7.42404C5.20501 7.61471 5.19765 7.9312 5.38832 8.13095L7.02469 9.84524C7.11903 9.94408 7.24972 10 7.38636 10C7.52301 10 7.65369 9.94408 7.74804 9.84524L10.6117 6.84524Z" fill="#E8E8E8"/>
</svg>
